<svg viewBox="0 0 32 32" fill="none" xmlns="http://www.w3.org/2000/svg">
<path fill-rule="evenodd" clip-rule="evenodd" d="M16 10.001C11.581 10.001 8 13.582 8 18.001C8 22.419 11.581 26.001 16 26.001C20.418 26.001 24 22.419 24 18.001C24 13.583 20.418 10.001 16 10.001ZM20.555 21.906C18.399 24.422 14.612 24.713 12.096 22.556C9.579 20.4 9.289 16.612 11.446 14.097C13.601 11.58 17.389 11.29 19.905 13.447C22.42 15.602 22.711 19.391 20.555 21.906Z" fill="currentColor"/>
<path fill-rule="evenodd" clip-rule="evenodd" d="M16 14.001C13.791 14.001 12.001 15.792 12 18V18.002C12 18.277 12.224 18.502 12.5 18.502C12.776 18.502 13 18.277 13 18.002V18C13.001 16.344 14.343 15.001 16 15.001C16.276 15.001 16.5 14.777 16.5 14.501C16.5 14.225 16.276 14.001 16 14.001Z" fill="currentColor"/>
<path fill-rule="evenodd" clip-rule="evenodd" d="M29.492 9.042L25.158 8.319L23.785 4.885C23.326 3.74 22.232 3 21 3H11C9.768 3 8.674 3.74 8.214 4.886L6.842 8.319L2.509 9.042C1.055 9.283 0 10.527 0 12V27C0 28.654 1.346 30 3 30H29C30.654 30 32 28.654 32 27V12C32 10.527 30.945 9.283 29.492 9.042ZM30 27C30 27.553 29.553 28 29 28H3C2.447 28 2 27.553 2 27V12C2 11.511 2.354 11.094 2.836 11.014L8.28 10.107L10.071 5.629C10.224 5.25 10.591 5 11 5H21C21.408 5 21.775 5.249 21.928 5.629L23.719 10.107L29.164 11.014C29.646 11.094 30 11.511 30 12V27Z" fill="currentColor"/>
</svg>
