<svg viewBox="0 0 24 24" fill="none" xmlns="http://www.w3.org/2000/svg">
<path d="M20.25 1.5H3.75C2.50734 1.5 1.5 2.50734 1.5 3.75V20.25C1.5 21.4927 2.50734 22.5 3.75 22.5H20.25C21.4927 22.5 22.5 21.4927 22.5 20.25V3.75C22.5 2.50734 21.4927 1.5 20.25 1.5ZM9.84923 12.2861C5.59823 9.20095 5.64155 9.19317 4.5 8.3047V7.125C4.5 6.50367 5.00367 6 5.625 6H18.375C18.9963 6 19.5 6.50367 19.5 7.125V8.3047C18.3576 9.19388 18.4015 9.20114 14.1508 12.2862C13.6586 12.645 12.6793 13.5105 12 13.5C11.3202 13.5102 10.3422 12.6456 9.84923 12.2861ZM19.5 10.2082V16.875C19.5 17.4963 18.9963 18 18.375 18H5.625C5.00367 18 4.5 17.4963 4.5 16.875V10.2082C5.15428 10.7142 6.0623 11.3911 8.96733 13.4995C9.63117 13.9842 10.7474 15.0063 11.9999 15C13.2602 15.0062 14.3922 13.9668 15.0336 13.4988C17.9379 11.391 18.8457 10.7141 19.5 10.2082Z" fill="currentColor"/>
</svg>
