<svg viewBox="0 0 17 17" fill="none" xmlns="http://www.w3.org/2000/svg">
<path d="M10.3125 14.8V9.46672C10.3125 9.2899 10.2423 9.12034 10.1172 8.99531C9.99221 8.87029 9.82264 8.80005 9.64583 8.80005H6.97917C6.80236 8.80005 6.63279 8.87029 6.50776 8.99531C6.38274 9.12034 6.3125 9.2899 6.3125 9.46672V14.8" stroke="currentColor" stroke-width="1.33333" stroke-linecap="round" stroke-linejoin="round"/>
<path d="M2.3125 7.46671C2.31245 7.27275 2.35472 7.08112 2.43636 6.90519C2.51799 6.72925 2.63703 6.57324 2.78517 6.44804L7.45183 2.44804C7.69249 2.24465 7.9974 2.13306 8.3125 2.13306C8.6276 2.13306 8.93251 2.24465 9.17317 2.44804L13.8398 6.44804C13.988 6.57324 14.107 6.72925 14.1886 6.90519C14.2703 7.08112 14.3125 7.27275 14.3125 7.46671V13.4667C14.3125 13.8203 14.172 14.1595 13.922 14.4095C13.6719 14.6596 13.3328 14.8 12.9792 14.8H3.64583C3.29221 14.8 2.95307 14.6596 2.70302 14.4095C2.45298 14.1595 2.3125 13.8203 2.3125 13.4667V7.46671Z" stroke="currentColor" stroke-width="1.33333" stroke-linecap="round" stroke-linejoin="round"/>
</svg>
