<svg viewBox="0 0 24 24" fill="none" xmlns="http://www.w3.org/2000/svg">
<path d="M12.0047 6.61587C9.02443 6.61587 6.62055 9.01975 6.62055 12C6.62055 14.9803 9.02443 17.3841 12.0047 17.3841C14.9849 17.3841 17.3888 14.9803 17.3888 12C17.3888 9.01975 14.9849 6.61587 12.0047 6.61587ZM12.0047 15.5004C10.0788 15.5004 8.5043 13.9306 8.5043 12C8.5043 10.0694 10.0741 8.49961 12.0047 8.49961C13.9353 8.49961 15.5051 10.0694 15.5051 12C15.5051 13.9306 13.9306 15.5004 12.0047 15.5004ZM18.8649 6.39563C18.8649 7.09383 18.3026 7.65146 17.6091 7.65146C16.9109 7.65146 16.3532 7.08914 16.3532 6.39563C16.3532 5.70211 16.9155 5.1398 17.6091 5.1398C18.3026 5.1398 18.8649 5.70211 18.8649 6.39563ZM22.4309 7.6702C22.3512 5.98795 21.967 4.49782 20.7346 3.27011C19.5069 2.0424 18.0167 1.65815 16.3345 1.5738C14.6007 1.4754 9.40399 1.4754 7.6702 1.5738C5.99264 1.65346 4.50251 2.03771 3.27011 3.26542C2.03771 4.49314 1.65815 5.98326 1.5738 7.66551C1.4754 9.39931 1.4754 14.596 1.5738 16.3298C1.65346 18.012 2.03771 19.5022 3.27011 20.7299C4.50251 21.9576 5.98795 22.3419 7.6702 22.4262C9.40399 22.5246 14.6007 22.5246 16.3345 22.4262C18.0167 22.3465 19.5069 21.9623 20.7346 20.7299C21.9623 19.5022 22.3465 18.012 22.4309 16.3298C22.5293 14.596 22.5293 9.40399 22.4309 7.6702ZM20.191 18.1901C19.8255 19.1086 19.1179 19.8161 18.1948 20.1863C16.8125 20.7346 13.5323 20.6081 12.0047 20.6081C10.4771 20.6081 7.19223 20.7299 5.81457 20.1863C4.89613 19.8208 4.18855 19.1132 3.81836 18.1901C3.27011 16.8078 3.39663 13.5276 3.39663 12C3.39663 10.4724 3.2748 7.18755 3.81836 5.80989C4.18387 4.89144 4.89144 4.18387 5.81457 3.81368C7.19692 3.26542 10.4771 3.39194 12.0047 3.39194C13.5323 3.39194 16.8171 3.27011 18.1948 3.81368C19.1132 4.17918 19.8208 4.88676 20.191 5.80989C20.7393 7.19223 20.6127 10.4724 20.6127 12C20.6127 13.5276 20.7393 16.8125 20.191 18.1901Z" fill="currentColor"/>
</svg>
