<svg width="20" height="20" viewBox="0 0 20 20" fill="none" xmlns="http://www.w3.org/2000/svg">
<path d="M16.025 6.95C17.6655 6.95 19 5.6155 19 3.975C19 2.3345 17.6655 1 16.025 1C14.3845 1 13.05 2.3345 13.05 3.975C13.05 5.6155 14.3845 6.95 16.025 6.95ZM17.3 13.75V8.4715C16.875 8.5905 16.45 8.65 16.025 8.65C15.8805 8.65 15.7445 8.65 15.6 8.65V13.75C15.6 15.161 14.461 16.3 13.05 16.3H6.25C4.839 16.3 3.7 15.161 3.7 13.75V6.95C3.7 5.539 4.839 4.4 6.25 4.4H11.35C11.35 4.264 11.35 4.1195 11.35 3.975C11.35 3.55 11.4095 3.125 11.5285 2.7H6.25C3.904 2.7 2 4.604 2 6.95V13.75C2 16.096 3.904 18 6.25 18H13.05C15.396 18 17.3 16.096 17.3 13.75Z" fill="black"/>
<path d="M18.9988 3.975C18.9988 5.6155 17.6643 6.95 16.0238 6.95C14.3833 6.95 13.0488 5.6155 13.0488 3.975C13.0488 2.3345 14.3833 1 16.0238 1C17.6643 1 18.9988 2.3345 18.9988 3.975Z" fill="#EA3C12"/>
</svg>
