<svg viewBox="0 0 110 20" fill="none" xmlns="http://www.w3.org/2000/svg">
<path d="M5.12335 14.2214V8.8938H0V6.70261H5.12335V1.33203H7.46793V6.70261L12.4827 6.7026V8.89379L7.46793 8.8938V14.2214H5.12335Z" fill="currentColor"/>
<path d="M14.1992 15.2954V0.257812H16.7826V6.50916H24.1203V0.257812H26.7037V15.2954H24.1203V8.78628H16.7826V15.2954H14.1992Z" fill="currentColor"/>
<path d="M33.6433 15.2954C32.8039 15.2954 32.0512 15.1021 31.3855 14.7154C30.7198 14.3144 30.1915 13.7845 29.8008 13.1257C29.4244 12.4525 29.2363 11.7151 29.2363 10.913C29.2363 10.2829 29.381 9.68853 29.6705 9.12999C29.9744 8.55714 30.3942 8.07736 30.9296 7.69068C30.3942 7.304 29.9817 6.83855 29.6922 6.29433C29.4027 5.73579 29.258 5.15577 29.258 4.55427C29.258 3.75226 29.4461 3.02903 29.8225 2.38456C30.2132 1.74009 30.7343 1.22452 31.3855 0.837834C32.0368 0.451153 32.7605 0.257812 33.5564 0.257812H39.6784V2.53493H33.8387C33.4768 2.53493 33.144 2.62803 32.84 2.8142C32.5361 2.98606 32.29 3.22237 32.1019 3.52312C31.9283 3.82387 31.8414 4.16759 31.8414 4.55427C31.8414 4.89798 31.9355 5.22022 32.1236 5.52097C32.3117 5.82172 32.5578 6.06519 32.8617 6.25137C33.1657 6.42323 33.5057 6.50916 33.8821 6.50916H38.9186V8.78628H34.0123C33.5781 8.78628 33.1947 8.88652 32.8617 9.08703C32.5288 9.28753 32.2683 9.55247 32.0802 9.88187C31.9065 10.1969 31.8197 10.5478 31.8197 10.9345C31.8197 11.3069 31.9065 11.6577 32.0802 11.9871C32.2683 12.3022 32.5217 12.56 32.84 12.7605C33.1729 12.9466 33.5492 13.0398 33.9689 13.0398H39.6784V15.2954H33.6433Z" fill="currentColor"/>
<path d="M50.2512 19.9785C49.4842 19.9785 48.8112 19.8354 48.2323 19.5489C47.6534 19.2768 47.212 18.8687 46.908 18.3244C46.6041 17.7945 46.4521 17.1572 46.4521 16.4125C46.4521 15.7393 46.5824 14.9947 46.8429 14.1783C47.1179 13.362 47.61 12.5242 48.3191 11.6649C49.0283 10.8056 50.0342 9.98212 51.3367 9.19444V2.51345H48.1889V0.257812H53.9201V16.0258C53.9201 16.7849 53.7754 17.4651 53.4859 18.0666C53.211 18.6681 52.7985 19.1335 52.2485 19.463C51.713 19.8067 51.0472 19.9785 50.2512 19.9785ZM50.0776 17.6799C50.3236 17.6799 50.5407 17.6155 50.7288 17.4866C50.917 17.3577 51.0618 17.1716 51.163 16.9281C51.2643 16.699 51.315 16.4197 51.315 16.0903V11.8153C50.519 12.4455 49.9473 13.047 49.6 13.6198C49.2526 14.1926 49.0428 14.7011 48.9704 15.145C48.898 15.5747 48.8619 15.9041 48.8619 16.1332C48.8619 16.6345 48.9848 17.014 49.2309 17.2718C49.477 17.5438 49.7592 17.6799 50.0776 17.6799Z" fill="currentColor"/>
<path d="M63.1654 15.5532C61.9641 15.5532 60.9004 15.3097 59.9741 14.8228C59.0479 14.3215 58.317 13.6126 57.7815 12.6961C57.2605 11.7795 57 10.6839 57 9.40926V0.257812H59.5834V9.62409C59.5834 10.2829 59.7281 10.8915 60.0176 11.4501C60.3215 12.0086 60.7412 12.4597 61.2767 12.8035C61.8122 13.1329 62.449 13.2976 63.1871 13.2976C63.9252 13.2976 64.5548 13.1329 65.0758 12.8035C65.6112 12.4597 66.0237 12.0086 66.3132 11.4501C66.6027 10.8915 66.7474 10.2829 66.7474 9.62409V0.257812H69.3525V9.40926C69.3525 10.6839 69.0848 11.7795 68.5493 12.6961C68.0138 13.6126 67.2828 14.3215 66.3566 14.8228C65.4304 15.3097 64.3667 15.5532 63.1654 15.5532Z" fill="currentColor"/>
<path d="M76.4954 15.2954C75.6416 15.2954 74.889 15.1093 74.2377 14.7369C73.601 14.3502 73.1017 13.8346 72.7398 13.1901C72.3924 12.5457 72.2188 11.8296 72.2188 11.0419V0.257812H74.8238V11.3642C74.8238 11.8225 74.9758 12.2162 75.2797 12.5457C75.5982 12.8751 76.0034 13.0398 76.4954 13.0398H80.5333V15.2954H76.4954Z" fill="currentColor"/>
<path d="M93.683 20C92.9015 20 92.2141 19.8568 91.6207 19.5704C91.0418 19.2839 90.5931 18.8614 90.2747 18.3029C89.9708 17.7586 89.8188 17.1071 89.8188 16.348C89.8188 16.1619 89.8261 15.9685 89.8405 15.768C89.8549 15.5818 89.8767 15.3885 89.9056 15.188C88.7189 15.2309 87.6335 15.0663 86.6493 14.6939C85.6651 14.3215 84.8113 13.7916 84.0876 13.1042C83.3785 12.4168 82.8285 11.6076 82.4377 10.6767C82.0469 9.73147 81.8516 8.70749 81.8516 7.60473C81.8516 6.55926 82.0325 5.57823 82.3943 4.66165C82.7561 3.74508 83.2771 2.93591 83.9573 2.23416C84.6376 1.53241 85.4553 0.988185 86.4105 0.601504C87.3657 0.200502 88.4294 0 89.6017 0C90.7884 0 91.8595 0.19334 92.8147 0.58002C93.7699 0.95238 94.5875 1.48228 95.2678 2.16971C95.948 2.85714 96.4691 3.65199 96.8308 4.55424C97.1926 5.44218 97.3736 6.40172 97.3736 7.43287V16.0258C97.3736 16.7849 97.2289 17.4651 96.9394 18.0666C96.6644 18.6681 96.252 19.1407 95.702 19.4844C95.152 19.8281 94.479 20 93.683 20ZM93.5093 17.7014C93.9001 17.7014 94.204 17.5582 94.4211 17.2718C94.6527 16.9853 94.7685 16.5915 94.7685 16.0902V11.6219C94.1606 12.0802 93.683 12.5314 93.3357 12.9753C92.9883 13.4192 92.7351 13.8418 92.5759 14.2428C92.4312 14.6437 92.3371 15.0018 92.2936 15.3169C92.2647 15.6319 92.2502 15.8826 92.2502 16.0687C92.2502 16.4125 92.3081 16.706 92.4239 16.9495C92.5397 17.193 92.6917 17.3792 92.8798 17.5081C93.0824 17.6369 93.2923 17.7014 93.5093 17.7014ZM89.6017 12.9538C89.8332 12.9538 90.0432 12.9466 90.2313 12.9323C90.4194 12.9037 90.622 12.8679 90.8391 12.8249C91.0707 12.3953 91.3602 11.9584 91.7075 11.5145C92.0548 11.0706 92.4818 10.6409 92.9883 10.2256C93.4949 9.79592 94.0882 9.38776 94.7685 9.00107V7.43287C94.7685 6.70247 94.6382 6.0222 94.3777 5.39205C94.1316 4.7619 93.7699 4.21769 93.2923 3.7594C92.8291 3.28679 92.2864 2.92159 91.6641 2.6638C91.0418 2.3917 90.3543 2.25564 89.6017 2.25564C88.8636 2.25564 88.1762 2.3917 87.5393 2.6638C86.9171 2.93591 86.3743 3.31543 85.9112 3.80236C85.448 4.27497 85.0862 4.84068 84.8257 5.49946C84.5652 6.14393 84.4349 6.84568 84.4349 7.60473C84.4349 8.36377 84.5652 9.07269 84.8257 9.73147C85.0862 10.3759 85.448 10.9417 85.9112 11.4286C86.3743 11.9012 86.9171 12.2736 87.5393 12.5457C88.1762 12.8177 88.8636 12.9538 89.6017 12.9538Z" fill="currentColor"/>
<path d="M103.965 15.2954C103.125 15.2954 102.373 15.1021 101.707 14.7154C101.041 14.3144 100.513 13.7845 100.122 13.1257C99.7458 12.4525 99.5576 11.7151 99.5576 10.913C99.5576 10.2829 99.7024 9.68853 99.9918 9.12999C100.296 8.55714 100.715 8.07736 101.251 7.69068C100.715 7.304 100.303 6.83855 100.014 6.29433C99.7241 5.73579 99.5794 5.15577 99.5794 4.55427C99.5794 3.75226 99.7675 3.02903 100.144 2.38456C100.535 1.74009 101.056 1.22452 101.707 0.837834C102.358 0.451153 103.082 0.257812 103.878 0.257812H110V2.53493H104.16C103.798 2.53493 103.465 2.62803 103.161 2.8142C102.857 2.98606 102.611 3.22237 102.423 3.52312C102.25 3.82387 102.163 4.16759 102.163 4.55427C102.163 4.89798 102.257 5.22022 102.445 5.52097C102.633 5.82172 102.879 6.06519 103.183 6.25137C103.487 6.42323 103.827 6.50916 104.203 6.50916H109.24V8.78628H104.334C103.899 8.78628 103.516 8.88652 103.183 9.08703C102.85 9.28753 102.59 9.55247 102.402 9.88187C102.228 10.1969 102.141 10.5478 102.141 10.9345C102.141 11.3069 102.228 11.6577 102.402 11.9871C102.59 12.3022 102.843 12.56 103.161 12.7605C103.494 12.9466 103.871 13.0398 104.29 13.0398H110V15.2954H103.965Z" fill="currentColor"/>
</svg>
